HIERARCHY
ROOT reference
{
  OFFSET 0 0 0
  CHANNELS 6 Xposition Yposition Zposition Zrotation Xrotation Yrotation
  JOINT Hips
  {
    OFFSET 387.421 88.6843 214.036
    CHANNELS 3 Zrotation Xrotation Yrotation
    JOINT RightUpLeg
    {
      OFFSET -9.26407 -1.54033 -0.0169218
      CHANNELS 3 Zrotation Xrotation Yrotation
      JOINT RightLeg
      {
        OFFSET 0.0262756 -41.889 0.0389421
        CHANNELS 3 Zrotation Xrotation Yrotation
        JOINT RightFoot
        {
          OFFSET -0.025595 -42.7244 0.117519
          CHANNELS 3 Zrotation Xrotation Yrotation
          End Site
          {
            OFFSET 0 -7.69 17.5
          }
        }
      }
    }
    JOINT LeftUpLeg
    {
      OFFSET 9.28488 -1.63184 0.00456132
      CHANNELS 3 Zrotation Xrotation Yrotation
      JOINT LeftLeg
      {
        OFFSET -0.00133996 -41.8929 0.0117795
        CHANNELS 3 Zrotation Xrotation Yrotation
        JOINT LeftFoot
        {
          OFFSET 0.253805 -40.8902 0.809143
          CHANNELS 3 Zrotation Xrotation Yrotation
          End Site
          {
            OFFSET 0 -7.69 17.5
          }
        }
      }
    }
    JOINT Spine
    {
      OFFSET 0.04218 14.2944 0.0529257
      CHANNELS 3 Zrotation Xrotation Yrotation
      JOINT Spine1
      {
        OFFSET 0.022284 9.72228 0.00997239
        CHANNELS 3 Zrotation Xrotation Yrotation
        JOINT Spine2
        {
          OFFSET 0.0397412 10.1199 -0.0103674
          CHANNELS 3 Zrotation Xrotation Yrotation
          JOINT Spine3
          {
            OFFSET 0.0389473 9.71765 -0.00772733
            CHANNELS 3 Zrotation Xrotation Yrotation
            JOINT Neck
            {
              OFFSET 0.0437972 10.3765 0.0320322
              CHANNELS 3 Zrotation Xrotation Yrotation
              JOINT Head
              {
                OFFSET 0.0431994 9.46781 0.0291763
                CHANNELS 3 Zrotation Xrotation Yrotation
                End Site
                {
                  OFFSET 0 15.95 0
                }
              }
            }
            JOINT RightShoulder
            {
              OFFSET -3.17206 6.93005 0.0018626
              CHANNELS 3 Zrotation Xrotation Yrotation
              JOINT RightArm
              {
                OFFSET -12.781 0.0116363 0.0199633
                CHANNELS 3 Zrotation Xrotation Yrotation
                JOINT RightForeArm
                {
                  OFFSET -26.5135 -0.0113607 0.0486864
                  CHANNELS 3 Zrotation Xrotation Yrotation
                  JOINT RightHand
                  {
                    OFFSET -25.9857 -0.0984063 0.163753
                    CHANNELS 3 Zrotation Xrotation Yrotation
                    JOINT RightHandThumb1
                    {
                      OFFSET -2.48905 0.190105 3.12053
                      CHANNELS 3 Zrotation Xrotation Yrotation
                      JOINT RightHandThumb2
                      {
                        OFFSET -3.68274 0 0
                        CHANNELS 3 Zrotation Xrotation Yrotation
                        JOINT RightHandThumb3
                        {
                          OFFSET -2.55832 0 0
                          CHANNELS 3 Zrotation Xrotation Yrotation
                          End Site
                          {
                            OFFSET -2.194 0 0
                          }
                        }
                      }
                    }
                    JOINT RightInHandIndex
                    {
                      OFFSET -3.22368 0.508421 1.97842
                      CHANNELS 3 Zrotation Xrotation Yrotation
                      JOINT RightHandIndex1
                      {
                        OFFSET -5.21684 -0.091368 0.999158
                        CHANNELS 3 Zrotation Xrotation Yrotation
                        JOINT RightHandIndex2
                        {
                          OFFSET -3.61937 0 0
                          CHANNELS 3 Zrotation Xrotation Yrotation
                          JOINT RightHandIndex3
                          {
                            OFFSET -2.0521 0 0
                            CHANNELS 3 Zrotation Xrotation Yrotation
                            End Site
                            {
                              OFFSET -1.805 0 0
                            }
                          }
                        }
                      }
                    }
                    JOINT RightInHandMiddle
                    {
                      OFFSET -3.38211 0.517263 0.756737
                      CHANNELS 3 Zrotation Xrotation Yrotation
                      JOINT RightHandMiddle1
                      {
                        OFFSET -5.17411 -0.084 0.313895
                        CHANNELS 3 Zrotation Xrotation Yrotation
                        JOINT RightHandMiddle2
                        {
                          OFFSET -3.94947 0 0
                          CHANNELS 3 Zrotation Xrotation Yrotation
                          JOINT RightHandMiddle3
                          {
                            OFFSET -2.47579 0 0
                            CHANNELS 3 Zrotation Xrotation Yrotation
                            End Site
                            {
                              OFFSET -1.975 0 0
                            }
                          }
                        }
                      }
                    }
                    JOINT RightInHandRing
                    {
                      OFFSET -3.36516 0.537895 -0.128947
                      CHANNELS 3 Zrotation Xrotation Yrotation
                      JOINT RightHandRing1
                      {
                        OFFSET -4.63474 -0.022105 -0.478947
                        CHANNELS 3 Zrotation Xrotation Yrotation
                        JOINT RightHandRing2
                        {
                          OFFSET -3.44238 0 0
                          CHANNELS 3 Zrotation Xrotation Yrotation
                          JOINT RightHandRing3
                          {
                            OFFSET -2.3881 0 0
                            CHANNELS 3 Zrotation Xrotation Yrotation
                            End Site
                            {
                              OFFSET -1.857 0 0
                            }
                          }
                        }
                      }
                    }
                    JOINT RightInHandPinky
                    {
                      OFFSET -3.16105 0.469368 -1.20179
                      CHANNELS 3 Zrotation Xrotation Yrotation
                      JOINT RightHandPinky1
                      {
                        OFFSET -4.14105 -0.022105 -1.09053
                        CHANNELS 3 Zrotation Xrotation Yrotation
                        JOINT RightHandPinky2
                        {
                          OFFSET -2.75653 0 0
                          CHANNELS 3 Zrotation Xrotation Yrotation
                          JOINT RightHandPinky3
                          {
                            OFFSET -1.74189 0 0
                            CHANNELS 3 Zrotation Xrotation Yrotation
                            End Site
                            {
                              OFFSET -1.645 0 0
                            }
                          }
                        }
                      }
                    }
                  }
                }
              }
            }
            JOINT LeftShoulder
            {
              OFFSET 3.23848 6.90919 -0.0119143
              CHANNELS 3 Zrotation Xrotation Yrotation
              JOINT LeftArm
              {
                OFFSET 12.8241 -0.0554782 -0.0520121
                CHANNELS 3 Zrotation Xrotation Yrotation
                JOINT LeftForeArm
                {
                  OFFSET 26.4865 -0.0658343 -0.0244543
                  CHANNELS 3 Zrotation Xrotation Yrotation
                  JOINT LeftHand
                  {
                    OFFSET 25.985 -0.0475988 -0.0124738
                    CHANNELS 3 Zrotation Xrotation Yrotation
                    JOINT LeftHandThumb1
                    {
                      OFFSET 2.48905 0.190105 3.12053
                      CHANNELS 3 Zrotation Xrotation Yrotation
                      JOINT LeftHandThumb2
                      {
                        OFFSET 3.68274 0 0
                        CHANNELS 3 Zrotation Xrotation Yrotation
                        JOINT LeftHandThumb3
                        {
                          OFFSET 2.55832 0 0
                          CHANNELS 3 Zrotation Xrotation Yrotation
                          End Site
                          {
                            OFFSET 2.194 0 0
                          }
                        }
                      }
                    }
                    JOINT LeftInHandIndex
                    {
                      OFFSET 3.22368 0.508421 1.97842
                      CHANNELS 3 Zrotation Xrotation Yrotation
                      JOINT LeftHandIndex1
                      {
                        OFFSET 5.21684 -0.091368 0.999158
                        CHANNELS 3 Zrotation Xrotation Yrotation
                        JOINT LeftHandIndex2
                        {
                          OFFSET 3.61937 0 0
                          CHANNELS 3 Zrotation Xrotation Yrotation
                          JOINT LeftHandIndex3
                          {
                            OFFSET 2.0521 0 0
                            CHANNELS 3 Zrotation Xrotation Yrotation
                            End Site
                            {
                              OFFSET 1.805 0 0
                            }
                          }
                        }
                      }
                    }
                    JOINT LeftInHandMiddle
                    {
                      OFFSET 3.38211 0.517263 0.756737
                      CHANNELS 3 Zrotation Xrotation Yrotation
                      JOINT LeftHandMiddle1
                      {
                        OFFSET 5.17411 -0.084 0.313895
                        CHANNELS 3 Zrotation Xrotation Yrotation
                        JOINT LeftHandMiddle2
                        {
                          OFFSET 3.94947 0 0
                          CHANNELS 3 Zrotation Xrotation Yrotation
                          JOINT LeftHandMiddle3
                          {
                            OFFSET 2.47579 0 0
                            CHANNELS 3 Zrotation Xrotation Yrotation
                            End Site
                            {
                              OFFSET 1.975 0 0
                            }
                          }
                        }
                      }
                    }
                    JOINT LeftInHandRing
                    {
                      OFFSET 3.36516 0.537895 -0.128947
                      CHANNELS 3 Zrotation Xrotation Yrotation
                      JOINT LeftHandRing1
                      {
                        OFFSET 4.63474 -0.022105 -0.478947
                        CHANNELS 3 Zrotation Xrotation Yrotation
                        JOINT LeftHandRing2
                        {
                          OFFSET 3.44238 0 0
                          CHANNELS 3 Zrotation Xrotation Yrotation
                          JOINT LeftHandRing3
                          {
                            OFFSET 2.3881 0 0
                            CHANNELS 3 Zrotation Xrotation Yrotation
                            End Site
                            {
                              OFFSET 1.857 0 0
                            }
                          }
                        }
                      }
                    }
                    JOINT LeftInHandPinky
                    {
                      OFFSET 3.16105 0.469368 -1.20179
                      CHANNELS 3 Zrotation Xrotation Yrotation
                      JOINT LeftHandPinky1
                      {
                        OFFSET 4.14105 -0.022105 -1.09053
                        CHANNELS 3 Zrotation Xrotation Yrotation
                        JOINT LeftHandPinky2
                        {
                          OFFSET 2.75653 0 0
                          CHANNELS 3 Zrotation Xrotation Yrotation
                          JOINT LeftHandPinky3
                          {
                            OFFSET 1.74189 0 0
                            CHANNELS 3 Zrotation Xrotation Yrotation
                            End Site
                            {
                              OFFSET 1.645 0 0
                            }
                          }
                        }
                      }
                    }
                  }
                }
              }
            }
          }
        }
      }
    }
  }
}
MOTION
Frames: 2
Frame Time: 0.00833333
4.500000000000000000e+02 0.000000000000000000e+00 0.000000000000000000e+00 0.000000000000000000e+00 0.000000000000000000e+00 0.000000000000000000e+00 -4.686095255846976781e-02 -8.613470481251421507e-02 -7.953386837511713936e-02 2.211940517556811869e-01 1.731528917691721181e-01 1.780415305397578529e-01 -1.323437552329657929e-02 -3.494215869854393197e-02 1.366179707906641817e-02 -5.278871949287241780e-03 -1.225830328355096005e-01 -6.100236716932369574e-03 1.189365488501627210e-01 3.186131515534985220e-02 3.694654665150617356e-01 -1.252562289930683054e-02 2.373977560700429867e-02 -2.634534266753975618e-01 9.778212810132223820e-02 1.263931242517211256e-02 -2.763493618889438508e-03 -1.377856809833535034e-01 -3.279930024425557755e-02 7.470281893472864587e-02 -3.266940102153197134e-02 9.488752979848377386e-03 1.709268472789832877e-02 -5.758242218095082493e-02 2.370515241950615221e-02 5.354158761068170819e-02 4.652151310713011079e-03 -5.864299259649556964e-03 -1.532463900493880385e-02 4.370117107907988546e-02 -7.398793887709546879e-02 -3.379458284563374715e-02 5.529462098048067847e-02 -2.068176455086120358e-01 -1.655503188431897976e-01 2.895214008912276871e-01 -3.033373931463164211e-02 2.852651975708844212e-01 -6.516221074491671539e-01 -1.911285191699642061e-01 4.517322795001106339e-01 1.511314394554640783e+00 -1.803519832577867188e+00 4.967660612814685239e-02 5.767453496401546698e-01 2.292502787773954775e+00 -1.554447762835225122e+00 0.000000000000000000e+00 0.000000000000000000e+00 0.000000000000000000e+00 9.028161681167397833e-16 9.809092627177060193e-16 0.000000000000000000e+00 -1.456389099515777208e-15 -4.855351771823351577e-17 0.000000000000000000e+00 -2.456868492605853596e-15 -1.284156842420296671e-16 1.285992117716541363e-15 0.000000000000000000e+00 0.000000000000000000e+00 0.000000000000000000e+00 0.000000000000000000e+00 9.472254889641795173e-16 1.298623390506880769e-15 0.000000000000000000e+00 -2.096748542190805049e-15 3.132950814690867113e-15 -2.456868492605853596e-15 -1.284156842420296671e-16 1.285992117716541363e-15 0.000000000000000000e+00 -3.296856383076556991e-16 -2.058782034711619596e-15 0.000000000000000000e+00 1.366087070931340438e-15 6.855594288642097490e-16 0.000000000000000000e+00 4.090230519050495173e-16 1.503715207208875402e-15 -2.456868492605853596e-15 -1.284156842420296671e-16 1.285992117716541363e-15 0.000000000000000000e+00 0.000000000000000000e+00 0.000000000000000000e+00 0.000000000000000000e+00 3.502811073524441613e-15 6.671970069993907047e-15 0.000000000000000000e+00 8.229201187244713242e-16 4.553514418406797685e-15 -2.456868492605853596e-15 -1.284156842420296671e-16 1.285992117716541363e-15 0.000000000000000000e+00 0.000000000000000000e+00 0.000000000000000000e+00 0.000000000000000000e+00 3.484551762120866220e-15 6.364336620349396957e-15 0.000000000000000000e+00 2.106777440024247569e-15 9.655155003846430359e-16 5.330005774568645771e-01 3.207297077778461514e-01 -1.896091710032667410e-01 -3.354674840137350511e-01 -1.376300577743563069e+00 -8.238152409308330260e-01 5.855178209581346493e+00 -8.010674420452916777e-01 6.547347454729030680e+00 -7.719458647345778246e-02 1.478484055313523948e-01 2.868929020353998549e-01 0.000000000000000000e+00 0.000000000000000000e+00 0.000000000000000000e+00 3.091671900419779766e-15 3.235853681822093999e-15 0.000000000000000000e+00 8.411761284670215915e-16 -2.001180338523496781e-15 0.000000000000000000e+00 -1.102400747882326752e-15 -5.068573366779766668e-16 -9.539507441952947386e-16 0.000000000000000000e+00 0.000000000000000000e+00 0.000000000000000000e+00 0.000000000000000000e+00 3.707594052636083163e-16 -2.162397145865445016e-15 0.000000000000000000e+00 8.735730374473095729e-16 -2.769309810553765824e-15 -1.102400747882326752e-15 -5.068573366779766668e-16 -9.539507441952947386e-16 0.000000000000000000e+00 -7.841742193245301681e-16 -1.105375300419405282e-15 0.000000000000000000e+00 -1.035609364773328900e-15 -2.724334024744120246e-15 0.000000000000000000e+00 -1.407871234353718912e-15 -2.854231894563576007e-15 -1.102400747882326752e-15 -5.068573366779766668e-16 -9.539507441952947386e-16 0.000000000000000000e+00 0.000000000000000000e+00 0.000000000000000000e+00 0.000000000000000000e+00 7.064438820606671788e-16 -1.054759989339100624e-15 0.000000000000000000e+00 -1.646955846102784555e-15 -2.796894578171789549e-15 -1.102400747882326752e-15 -5.068573366779766668e-16 -9.539507441952947386e-16 0.000000000000000000e+00 0.000000000000000000e+00 0.000000000000000000e+00 0.000000000000000000e+00 -1.739610848348929040e-15 6.776034489832251256e-16 0.000000000000000000e+00 5.897579849806661142e-16 -3.840463467551283115e-16
4.500000000000000000e+02 0.000000000000000000e+00 0.000000000000000000e+00 0.000000000000000000e+00 0.000000000000000000e+00 0.000000000000000000e+00 -5.731777687944263067e-02 -1.056072204589087460e-01 -4.672735498145445809e-02 2.304441059637236389e-01 1.796265983793008114e-01 1.407677316691014202e-01 6.222171633547581016e-04 -3.300364746892981566e-02 -2.845498105412310949e-02 -4.319095231415150810e-02 -1.102797206777323680e-01 6.355167934185831924e-02 1.026617671684498245e-01 3.085453728500756748e-02 3.033681933195129798e-01 -6.497202683910939525e-02 1.516237908922968801e-02 -1.883499205600339121e-01 9.709803332551797395e-02 -2.563944040650379882e-02 -1.578559495023144216e-03 -1.473961196435227827e-01 -4.064469927650786463e-02 6.808274274443859575e-02 -3.501554798055439566e-02 8.607406192441744569e-03 1.542756209840220535e-02 -6.177124743113920902e-02 2.141841687826835303e-02 5.431120131842056414e-02 6.151875373737077102e-03 -5.438156106415922494e-03 -1.593860556454358354e-02 4.611234639802146151e-02 -6.351466315029669074e-02 -2.016547277163569310e-02 6.780559979078062960e-02 -1.896494382841749093e-01 -1.738896172231419457e-01 3.008698057592242292e-01 -2.861015996269410111e-02 3.399284564543069709e-01 -7.323935471500668815e-01 -1.565212444317231055e-01 4.303529601347573230e-01 1.685231697011629004e+00 -2.084541381246026948e+00 1.105112972263252447e-01 4.857092198506678393e-01 2.578110037427716605e+00 -1.783021413504041863e+00 0.000000000000000000e+00 0.000000000000000000e+00 0.000000000000000000e+00 2.365898881030215120e-15 1.367767797640749883e-15 0.000000000000000000e+00 -9.651099882649748085e-16 5.773375057619014708e-16 0.000000000000000000e+00 -4.116217900332665840e-15 -6.892269094957195066e-16 1.962666275059400714e-15 0.000000000000000000e+00 0.000000000000000000e+00 0.000000000000000000e+00 0.000000000000000000e+00 1.039335493530893160e-15 1.447507717117695073e-15 0.000000000000000000e+00 -2.291636680294700395e-15 2.686818194919761085e-15 -4.116217900332665840e-15 -6.892269094957195066e-16 1.962666275059400714e-15 0.000000000000000000e+00 -3.367566878609132597e-16 -2.065699849151252766e-15 0.000000000000000000e+00 1.466678148704867827e-15 1.268814933575727513e-15 0.000000000000000000e+00 -6.028886268768553729e-18 1.859639905745273577e-15 -4.116217900332665840e-15 -6.892269094957195066e-16 1.962666275059400714e-15 0.000000000000000000e+00 0.000000000000000000e+00 0.000000000000000000e+00 0.000000000000000000e+00 3.432604781354569363e-15 7.378334426012343740e-15 0.000000000000000000e+00 2.141024716589942714e-16 4.663995372012183900e-15 -4.116217900332665840e-15 -6.892269094957195066e-16 1.962666275059400714e-15 0.000000000000000000e+00 0.000000000000000000e+00 0.000000000000000000e+00 0.000000000000000000e+00 3.924033670329262767e-15 7.584520532777107050e-15 0.000000000000000000e+00 2.062886558759640973e-15 1.460268889020613571e-15 6.011605570074054494e-01 3.501058802317216778e-01 -9.536267952568419637e-02 -2.773623459014281645e-01 -1.526168850966490798e+00 -9.692074812021815866e-01 6.453089288416131275e+00 -9.242115235847154775e-01 7.225035692169470281e+00 -8.055104386237132985e-02 8.426570800791921556e-02 3.529063451541045726e-01 0.000000000000000000e+00 0.000000000000000000e+00 0.000000000000000000e+00 2.430284212571039046e-15 3.071997532493852677e-15 0.000000000000000000e+00 -1.236730726593160409e-16 -1.972019265811792874e-15 0.000000000000000000e+00 -2.000271794537890934e-15 -6.156805905328244331e-16 -8.267838033545926436e-16 0.000000000000000000e+00 0.000000000000000000e+00 0.000000000000000000e+00 0.000000000000000000e+00 5.853266183047841663e-16 -2.405732011068711065e-15 0.000000000000000000e+00 1.030125146257352108e-15 -2.905966154789299263e-15 -2.000271794537890934e-15 -6.156805905328244331e-16 -8.267838033545926436e-16 0.000000000000000000e+00 -8.074882504142487606e-16 -9.969541119259378410e-16 0.000000000000000000e+00 -9.848900739842515579e-16 -2.799772091474430487e-15 0.000000000000000000e+00 -1.724275479605300064e-15 -2.806951080862723320e-15 -2.000271794537890934e-15 -6.156805905328244331e-16 -8.267838033545926436e-16 0.000000000000000000e+00 0.000000000000000000e+00 0.000000000000000000e+00 0.000000000000000000e+00 1.173318628553422916e-15 -1.066906765692780020e-15 0.000000000000000000e+00 -1.689485624005859112e-15 -3.013109203052494031e-15 -2.000271794537890934e-15 -6.156805905328244331e-16 -8.267838033545926436e-16 0.000000000000000000e+00 0.000000000000000000e+00 0.000000000000000000e+00 0.000000000000000000e+00 -1.580501382158201452e-15 2.697452706440432587e-16 0.000000000000000000e+00 6.661620488688514479e-16 -6.657743490068879933e-16
